# xmcd
#
# Track frame offsets:
#	183
#	10348
#	27713
#	40183
#	61173
#	80348
#	92065
#	109910
#	125658
#	137788
#	151863
#	168963
#
# Disc length: 2471 seconds
#
# Revision: 1
# Processed by: cddbd v1.5.2PL0 Copyright (c) Steve Scherf et al.
# Submitted via: audiograbber 1.83.01
#
DISCID=9809a50c
DTITLE=Britta T. - Knock knock
DYEAR=1900
DGENRE=Country
TTITLE0=Knock knock
TTITLE1=Why not me
TTITLE2=Makin' good lovin'
TTITLE3=One man, one woman, one love
TTITLE4=Baby's got the blues
TTITLE5=I was just teasing you
TTITLE6=Rompin' stompin' bad news blues
TTITLE7=Tonight
TTITLE8=Forever you
TTITLE9=Warmed over romance
TTITLE10=If you ever feel like fallin'
TTITLE11=Trainride
EXTD=
EXTT0=
EXTT1=
EXTT2=
EXTT3=
EXTT4=
EXTT5=
EXTT6=
EXTT7=
EXTT8=
EXTT9=
EXTT10=
EXTT11=
PLAYORDER=
